<svg xmlns="http://www.w3.org/2000/svg" viewBox="0 0 120 120" width="120" height="120">
  <!-- Left metal connector -->
  <rect x="8" y="48" width="18" height="24" rx="3" fill="#7F8C8D"/>
  <rect x="4" y="52" width="8" height="16" rx="2" fill="#707B7C"/>
  <!-- Right metal connector -->
  <rect x="94" y="48" width="18" height="24" rx="3" fill="#7F8C8D"/>
  <rect x="108" y="52" width="8" height="16" rx="2" fill="#707B7C"/>
  <!-- Flexible braided hose -->
  <path d="M26,60 Q35,42 45,60 Q55,78 65,60 Q75,42 85,60 Q90,70 94,60" fill="none" stroke="#95A5A6" stroke-width="12" stroke-linecap="round"/>
  <!-- Braid pattern lines -->
  <path d="M28,60 Q37,44 46,60 Q56,76 66,60 Q76,44 86,60 Q91,68 94,60" fill="none" stroke="#BDC3C7" stroke-width="2"/>
  <path d="M28,60 Q37,46 46,60 Q56,74 66,60 Q76,46 86,60" fill="none" stroke="#7F8C8D" stroke-width="1.5" stroke-dasharray="4 3"/>
</svg>