<svg xmlns="http://www.w3.org/2000/svg" width="250" height="250" viewBox="0 0 250 250" fill="none">
<defs>
  <linearGradient id="ig-gradient" x1="0%" y1="100%" x2="100%" y2="0%">
    <stop offset="0%" stop-color="#FCAF45"/>
    <stop offset="30%" stop-color="#FD1D1D"/>
    <stop offset="60%" stop-color="#E1306C"/>
    <stop offset="100%" stop-color="#833AB4"/>
  </linearGradient>
</defs>
<path d="M 61.49,143.81 C 54.91,147.91 46.38,137.44 42.22,130.22 C 39.72,125.76 37.21,121.66 35.12,120.08 C 41.89,117.06 48.79,106.11 54.18,100.04 C 57.75,95.96 59.74,95.92 60.66,96.33 C 60.96,96.46 61.12,96.16 61.12,95.57 C 61.12,92.61 57.62,89.95 53.71,91.11 C 48.89,92.58 45.96,100.62 41.01,107.83 C 37.88,112.49 35.62,116.29 30.9,118.45 C 33.19,111.17 34.86,104.73 34.79,100.01 C 34.73,93.91 32.25,90.72 27.33,90.82 C 16.83,91.02 5.22,104.76 5.53,114.41 C 5.69,119.71 9.43,120.57 12.04,120.14 C 12.83,119.98 12.73,119.38 12.37,118.82 C 9.99,115.08 14.06,104.88 20.44,98.51 C 23.12,95.75 26.11,94.08 27.72,94.28 C 29.04,94.44 29.11,96.22 28.55,99.92 C 27.16,109.18 20.09,128.82 19.69,136.86 C 19.43,141.82 22.89,142.35 26.26,142.05 C 25.53,137.26 27.75,127.44 29.47,122.11 C 32.01,124.81 36.12,135.11 41.99,143.18 C 46.78,149.76 51.08,151.28 55.21,151.11 C 59.31,150.94 61.76,147.78 61.89,144.31 C 61.92,143.68 61.76,143.61 61.49,143.81 Z" fill="url(#ig-gradient)"/>
<path d="M 57.92,109.91 C 60.76,109.91 61.42,107.12 60.79,105.16 C 60.23,103.34 57.98,102.81 56.43,103.9 C 54.21,105.45 54.41,109.91 57.92,109.91 Z" fill="url(#ig-gradient)"/>
<path d="M 64.62,109.91 C 67.46,109.91 68.12,107.12 67.49,105.16 C 66.93,103.34 64.68,102.81 63.13,103.9 C 60.91,105.45 61.11,109.91 64.62,109.91 Z" fill="url(#ig-gradient)"/>
<path d="M 242.01,126.98 C 240.19,126.98 239.66,127.97 239.96,128.63 C 240.85,130.78 238.93,140.01 235.36,139.68 C 232.2,139.38 233.42,131.9 236.95,117.12 C 238.01,112.86 235.26,111.51 233.38,111.51 C 228.92,111.51 226.47,118.42 223.93,124.02 C 224.66,120.01 225.12,117.72 225.02,115.77 C 224.86,113.09 223.34,112.26 221.42,112.26 C 217.12,112.26 215.07,118.91 212.11,125.92 C 213.07,121.16 213.43,118.27 213.27,115.71 C 213.07,113.22 208.81,112.72 208.21,113.12 C 207.32,115.91 206.36,123.02 205.04,127.61 C 203.72,132.23 202.43,132.86 201.31,132.43 C 199.52,131.67 200.12,126.48 202.47,117.62 C 203.33,114.22 201.71,113.59 199.19,112.89 C 197.91,112.5 196.82,113.42 196.42,115.11 C 195.76,113.06 193.71,112.33 191.72,112.33 C 186.46,112.33 183.57,118.81 182.25,125.22 C 181.09,130.18 179.41,132.43 178.12,132.03 C 176.37,131.47 177.06,126.05 179.18,119.11 C 179.84,116.72 178.62,115.17 175.91,115.01 C 172.91,114.85 170.96,114.48 170.76,113.56 C 171.72,110.94 172.12,107.61 168.99,107.18 C 165.42,106.68 165.06,112.63 165.22,113.85 C 165.42,115.31 166.15,116.23 167.21,116.76 C 165.42,123.81 162.81,130.12 159.78,133.65 C 160.61,127.71 162.19,118.02 162.82,114.83 C 163.12,113.28 161.03,112.32 159.21,112.06 C 158.12,111.89 157.33,112.72 156.86,114.61 C 156.14,112.92 154.52,112.06 152.43,112.06 C 146.91,112.06 144.13,118.51 142.68,125.12 C 141.06,130.11 138.21,132.87 135.36,132.7 C 132.91,132.57 131.26,130.92 131.26,126.88 C 136.18,127.08 140.71,122.62 141.17,117.66 C 141.53,113.99 139.31,112.07 135.92,112.07 C 130.62,112.07 127.73,117.82 126.28,123.59 C 125.29,124.58 123.87,125.04 123.24,125.21 C 123.54,123.12 123.64,121.27 123.44,118.72 C 122.98,113.96 120.72,112.14 118.11,112.14 C 115.33,112.14 113.41,113.76 112.22,116.11 C 112.52,114.22 112.92,112.14 112.22,110.75 C 111.46,109.62 109.01,109.29 108.22,109.46 C 106.77,112.01 105.71,119.75 104.42,124.34 C 102.67,130.78 100.82,132.4 99.56,132.01 C 98.11,131.48 98.77,127.25 100.89,118.16 C 101.81,114.22 99.86,112.07 97.38,112.07 C 93.25,112.07 91.43,117.43 88.55,124.51 C 89.21,120.41 89.51,118.92 89.44,116.4 C 89.34,113.91 87.69,112.79 85.77,112.79 C 81.7,112.79 79.62,118.16 76.77,125.17 C 77.63,120.41 77.99,118.12 77.83,116.07 C 77.56,113.32 73.23,112.92 72.64,113.45 C 71.61,117.19 70.72,123.46 69.53,127.62 C 68.11,132.51 66.72,132.84 65.83,132.45 C 64.41,131.72 65.07,126.46 67.42,118.09 C 68.31,114.76 66.92,113.87 64.31,113.31 C 62.76,112.95 61.73,113.87 61.17,115.59 C 60.41,113.54 58.63,112.35 56.31,112.35 C 50.13,112.35 46.67,121.94 46.67,128.92 C 46.67,134.01 48.72,136.7 51.92,136.7 C 55.08,136.7 57.27,134.01 58.72,129.62 C 58.82,133.45 59.91,136.41 63.31,136.41 C 66.34,136.41 68.23,134.25 69.58,130.72 C 69.42,132.11 69.35,133.33 69.45,134.09 C 69.78,136.11 72.23,136.61 74.08,136.31 C 75.37,136.04 75.17,134.82 76.06,131.22 C 78.15,122.85 81.07,116.81 82.52,117.01 C 83.68,117.21 81.69,124.22 81.69,130.93 C 81.69,134.83 83.21,135.82 86.17,135.76 C 87.72,135.76 87.22,133.81 88.71,128.95 C 90.83,121.81 93.31,117.05 94.5,117.21 C 95.75,117.38 92.15,126.11 92.72,131.64 C 93.11,135.51 95.06,136.8 97.18,136.8 C 100.38,136.8 102.53,133.91 103.82,130.11 C 102.27,138.05 101.71,145.2 102.11,149.23 C 102.57,153.06 105.97,153.46 107.32,153.13 C 106.43,147.84 107.22,138.78 108.61,132.91 C 109.11,135.53 110.13,136.62 112.71,136.62 C 117.24,136.62 120.84,132.49 122.46,127.13 C 123.42,126.77 124.34,126.27 125.33,125.51 C 124.93,132.09 127.41,136.72 133.49,136.72 C 137.82,136.72 140.88,134.33 142.93,130.9 C 143.43,134.7 145.28,136.62 147.96,136.62 C 150.44,136.62 152.23,134.93 153.68,131.84 C 153.41,133.96 153.12,135.71 152.82,137.1 C 145.35,140.77 140.02,145.76 140.02,152.41 C 140.02,156.9 143.22,158.82 146.72,158.42 C 153.72,157.69 156.72,148.27 158.77,136.61 C 164.29,133.01 167.93,124.81 169.78,117.07 C 170.71,117.27 171.73,117.33 172.53,117.4 C 173.02,117.47 173.12,117.86 172.96,118.66 C 170.81,126.4 169.82,136.28 175.76,136.61 C 178.92,136.78 180.91,134.46 182.36,130.72 C 182.89,134.32 184.71,136.61 187.56,136.61 C 190.72,136.61 192.51,133.92 194.16,129.23 C 194.46,133.26 195.75,136.32 198.91,136.32 C 202.14,136.32 203.76,133.9 205.08,130.57 C 204.95,131.89 204.88,133.11 204.98,133.91 C 205.25,135.93 207.7,136.43 209.55,136.13 C 210.41,135.96 210.31,135.14 211.13,131.34 C 213.02,122.81 216.15,116.73 217.44,116.93 C 218.46,117.1 216.05,124.84 216.05,131.18 C 216.05,134.81 217.73,135.94 220.12,135.74 C 221.41,135.61 221.11,133.92 222.43,129.3 C 224.75,121.36 227.67,116.73 228.66,116.93 C 229.75,117.16 226.12,126.19 227.31,135.71 C 228.03,141.65 231.47,142.71 234.63,142.41 C 240.81,141.85 244.14,135.04 244.47,131.71 C 244.74,128.92 243.71,126.97 242.01,126.97 V 126.98 Z M 135.72,115.51 C 137.84,115.51 137.08,119.31 135.26,122.37 C 133.94,124.76 132.09,125.95 130.83,125.85 C 131.46,120.66 133.68,115.51 135.73,115.51 H 135.72 Z M 54.62,132.11 C 50.92,132.11 53.34,115.71 58.6,115.71 C 59.89,115.71 60.28,117.03 60.35,117.89 C 59.16,124.51 56.41,132.11 54.62,132.11 Z M 113.9,132.87 C 112.71,133.73 111.32,133.66 111.52,132.11 C 111.75,130.26 113.74,128.37 116.62,127.54 C 116.06,129.99 115.17,131.91 113.91,132.87 H 113.9 Z M 117.37,124.79 C 114.31,125.35 110.91,127.04 109.46,130.06 C 110.98,123.31 113.33,115.41 116.08,115.41 C 117.83,115.41 118.23,119.11 117.37,124.78 V 124.79 Z M 145.92,155.16 C 144.37,155.36 143.41,154.17 143.41,152.35 C 143.41,148.02 147.94,144.19 152.14,141.7 C 150.45,148.98 148.6,154.78 145.92,155.15 V 155.16 Z M 150.61,132.11 C 147.21,132.11 149.13,115.44 154.12,115.44 C 155.54,115.44 156.1,116.9 156.2,117.96 C 155.01,123.83 152.63,132.11 150.61,132.11 Z M 189.51,131.84 C 186.35,131.84 188.83,115.44 193.29,115.44 C 194.74,115.44 195.21,116.83 195.31,117.63 C 194.22,123.23 191.67,131.84 189.52,131.84 H 189.51 Z" fill="url(#ig-gradient)"/>
</svg>
